<?xml version="1.0" encoding="utf-8"?>
<!-- Generator: Adobe Illustrator 26.0.1, SVG Export Plug-In . SVG Version: 6.00 Build 0)  -->
<svg version="1.1" id="Layer_1" xmlns="http://www.w3.org/2000/svg" xmlns:xlink="http://www.w3.org/1999/xlink" x="0px" y="0px"
	 viewBox="0 0 1475.4 891.8" style="enable-background:new 0 0 1475.4 891.8;" xml:space="preserve">
<style type="text/css">
	.st0{clip-path:url(#SVGID_00000016042482239577423830000013047568577119405184_);}
	.st1{fill:url(#SVGID_00000057149251984443120430000005286067876543632303_);}
	.st2{fill:#598C3E;}
	.st3{fill:#659E42;}
	.st4{fill:none;stroke:#507D3A;stroke-width:5.9088;stroke-linecap:round;stroke-miterlimit:10;}
	.st5{fill:#598C3E;stroke:#537D39;stroke-width:4.4316;stroke-linecap:round;stroke-linejoin:round;}
	.st6{fill:none;stroke:#537D39;stroke-width:4.4316;stroke-miterlimit:10;}
	.st7{fill:none;stroke:#598C3E;stroke-width:4.4316;stroke-linecap:round;stroke-linejoin:round;}
	.st8{fill:#E0DFDF;}
	.st9{fill:#C1B8B8;}
	.st10{fill:none;stroke:#537D39;stroke-width:2.9545;stroke-miterlimit:10.0004;}
	.st11{fill:#385527;}
	.st12{fill:none;stroke:#537D39;stroke-width:2.9544;stroke-miterlimit:10;}
	.st13{fill:#54823B;}
	.st14{fill:#537D39;}
	.st15{fill:none;stroke:#537D39;stroke-width:4.4316;stroke-linecap:round;stroke-miterlimit:10;}
	.st16{fill:#232020;}
	.st17{fill:#1B1919;}
	.st18{fill:#C1C467;}
	.st19{fill:#AB1F29;}
	.st20{fill:#9F1D28;}
	.st21{fill:none;stroke:#547D39;stroke-width:5.9088;stroke-miterlimit:10;}
	.st22{fill:none;stroke:#D4DE25;stroke-width:4.4316;stroke-linecap:round;stroke-linejoin:round;}
	.st23{fill:none;stroke:#527D39;stroke-width:4.4316;stroke-linecap:round;stroke-linejoin:round;}
	.st24{fill:#598C3E;stroke:#527D39;stroke-width:4.4316;stroke-linecap:round;stroke-linejoin:round;}
	.st25{fill:none;stroke:#527D39;stroke-width:4.4316;stroke-linecap:round;stroke-miterlimit:10;}
</style>
<g id="Layer_2_00000182514902600305278720000002111793369384550546_">
</g>
<g id="Layer_1_00000038386103973622531230000009944941451462835089_">
	<g>
		<g>
			<defs>
				<rect id="SVGID_1_" x="-451.4" y="-331.8" width="2209.9" height="1346.9"/>
			</defs>
			<clipPath id="SVGID_00000039824314727397558620000000433930034063686027_">
				<use xlink:href="#SVGID_1_"  style="overflow:visible;"/>
			</clipPath>
			<g style="clip-path:url(#SVGID_00000039824314727397558620000000433930034063686027_);">
				
					<radialGradient id="SVGID_00000095302586896504438890000000567384540768350636_" cx="653.5234" cy="494.5977" r="508.7509" gradientTransform="matrix(1.1271 0 0 -1.1164 0.2263 998.0779)" gradientUnits="userSpaceOnUse">
					<stop  offset="2.066799e-05" style="stop-color:#5B00D0"/>
					<stop  offset="0.2616" style="stop-color:#5800CA"/>
					<stop  offset="0.619" style="stop-color:#5100B8"/>
					<stop  offset="1" style="stop-color:#45009E"/>
				</radialGradient>
				<rect x="-1.8" style="fill:url(#SVGID_00000095302586896504438890000000567384540768350636_);" width="1477.2" height="891.8"/>
				<g id="Kropp">
					<path class="st2" d="M813.1,450.2c-8-37.2-12.3-68.8-12.3-68.8L590,496.5l75.6,110.8c-0.1-0.3,0,0,0,0l0,0l6.2,10.9
						c3.7,6.4,8.9,7.8,14.6,10.2C748.1,584.8,803.9,525.4,813.1,450.2z"/>
					<path class="st3" d="M714.2,658.5l-2.7-4.6l-3.1-5.3l-1.9-3.4c0,0-202.5,30.7-214.9,84.6c-4.6,19.6-8.1,40.3-10.8,58.6
						c-2.1,13.6,3.7,27.2,14.9,35.2c14.2,10.2,32.5,12.9,49,7.1c23.6-8.9,50.2-26.6,68-13.3c13.3,9.3,27.6,17,42.8,22.9
						c39.9,5.9,80.7-1.2,118.5-13.7c18-8.6,36.5-14.9,55.8-7.7c13.4,5.6,26.9,14.5,41.2,20.2c26.4-0.6,52-8,77.1-17.1
						c12.9-9.3,25.6-19.1,41.2-23.6c5.9-1.8,12.3-1.2,17.7,1.5c13.1,9.9,26.1,20.7,39.7,28.5l0,0c-16.5-59.1-22.9-126.2-3.2-182.1
						c-48.3-22-108-41.1-165.9-49.9C839.2,549.8,820,490,810.4,445.1c-9.3,75.2-61.9,139.6-123.5,183.2c6.2,2.5,13.1,5.9,19.6,17.1
						c0.7,1.2,1.3,2.4,1.9,3.4l3.1,5.2"/>
					<path class="st3" d="M653.5,840.7c23.8,9,48.3,11.7,73.9,5.2c14.8-3.4,53.9-24.2,69-31.3C748.7,832,707.1,838.3,653.5,840.7z"
						/>
					<path class="st3" d="M1125.9,786c1.6-45.1-3.2-89.8-23.5-107.4c-18.9-12.3-38.6-23-59.1-32.2c-19.6,56.1-13.3,123.1,3.2,182.1
						l0,0c7.8,4.7,16.5,8.3,25.6,10.2C1096.4,831.4,1114.3,809.4,1125.9,786z"/>
					<path class="st3" d="M1071.9,838.9c9.7,1.9,19.9,1.3,29.4-1.8l0,0c8.6-3.2,15.7-8.9,22.2-15.5c1.2-11.5,2.1-23.5,2.4-35.5
						C1114.3,809.4,1096.4,831.4,1071.9,838.9z"/>
					<path class="st3" d="M908.2,845.2c14.5-1,59.8-38.3,82.1-45.5c12.3-19.4-66.2,37.7-141.4,28.5
						C861.4,833.3,869.3,848.1,908.2,845.2z"/>
					<path id="Kropp_stroke" class="st4" d="M724.3,678.3"/>
					<path id="Kropp_stroke-2" class="st4" d="M706.1,645.5c0,0-202.5,30.6-214.9,84.5c-4.4,19.2-8,39.3-10.6,57.3
						c-2.4,15.5,4.9,30.7,18.3,38.9c13.7,8.3,30.3,10,45.5,4.9c23.6-8.9,50.2-26.6,68-13.3c36.9,25.1,75.3,38.4,116.7,28.1
						c32.5-7.4,65-39.9,100.4-26.6c25.1,10.3,50.2,32.5,81.2,23.6c29.5-8.9,48.7-35.5,78.3-44.3h0.1c7.5-1.8,15.5-0.1,21.7,4.7
						c28.1,21.4,55.2,45.1,90.4,33.8l0,0l0.3-0.1c13.3-5.3,22.3-17.9,23.3-32.2c3.5-51,0.6-106.1-22.5-126.2
						c-50.5-33.8-139.9-69-225.1-82.1c-70.5-85.1-76.5-215.2-76.5-215.2L590,496.5l75.6,110.8c-0.1-0.3,0,0,0,0l0,0l6.2,10.9
						C679.2,631.2,693.4,623.8,706.1,645.5l12.6,22.2"/>
					<path id="Kropp_stroke-3" class="st4" d="M717.2,664.4"/>
					<path class="st4" d="M780.7,710.2c0,0-114.6,2.4-132.1,10.5"/>
					<path class="st4" d="M869.8,700.8c0,0,120.8,22.2,143.3,38.9"/>
				</g>
				<g id="Øre_1">
					<path class="st5" d="M550.4,336.5c6.9,13.7,34.7,16.5,47.1-4c13.6-22.5-5.8-65.6-9.6-85.2c-3.8-19.6,5.5-94.5,13.3-179.8
						c-8.7,67.4-79.9,170.9-97.8,184.4c-17.9,13.4-19.1,32.5-17.9,49c1.2,16.5,13.6,28.4,13.6,28.4"/>
					<g id="Layer_21">
						<path class="st6" d="M521.9,306.4c-5.8-14.5-5.5-30.6,0.9-44.8c15.8-35.7,34.7-30.3,43.9-57.6c-11.2,48.3-9,83-3.2,100.3"/>
					</g>
					<g id="Layer_20">
						<path class="st6" d="M530.3,309.8c0,0-9.5-44.2,10-55.1"/>
					</g>
					<g id="Layer_19">
						<path class="st6" d="M528.8,275.8c0,0,12.1,5,13.7,34"/>
					</g>
				</g>
				<g id="Fjes">
					<path class="st3" d="M850.1,214.3c-8.9-110.5-83.8-203.1-230.7-163.5c-2.7,0.7-5.3,1.5-8,2.4
						c-196,59.1-136.8,279.5-136.8,279.5s33.8,173.6,44.5,192.3c10.6,18.6,42.5,93.4,64.8,99.6c9.9,2.8,26,2.7,41.7,1
						c19.5-1.9,38.3-6.4,43.6-10.8c9.7-8,95.1-107.1,96.9-144.8c0.9-18.6,1.3-41.7,0.6-62.6l-6.8-49.6c4,9.5,6.1,28.4,6.8,49.6l0,0
						C838.3,370.9,854,261.9,850.1,214.3z M622.6,392.5c-1.5,17.7-17.7,28.1-35.5,28.1c-4.4-22.2,0-42.8-4.4-65
						c-4.4-17.7-8.9-34-7.4-51.7C599,327.5,625.6,357,622.6,392.5L622.6,392.5z"/>
					<path class="st3" d="M582.8,355.6c4.4,22.2-8.6,45.1-4.1,67.2c55.7,4.3,48-30.4,46.2-41.1c-7.7-46.5-42.2-86.1-49.5-77.8
						C573.9,321.6,578.3,337.8,582.8,355.6z"/>
					<path class="st3" d="M850.1,214.3c-8.9-110.5-83.8-203.1-230.7-163.5c-2.7,0.7-5.3,1.5-8,2.4
						c-196,59.1-136.8,279.5-136.8,279.5s33.8,173.6,44.5,192.3c10.6,18.6,42.5,93.4,64.8,99.6c9.9,2.8,26,2.7,41.7,1
						c19.5-1.9,38.3-6.4,43.6-10.8c9.7-8,95.1-107.1,96.9-144.8c0.9-18.6,1.3-41.7,0.6-62.6l-6.8-49.6c4,9.5,6.1,28.4,6.8,49.6l0,0
						C838.3,370.9,854,261.9,850.1,214.3z M622.6,392.5c-1.5,17.7-17.7,28.1-35.5,28.1c-4.4-22.2,0-42.8-4.4-65
						c-4.4-17.7-8.9-34-7.4-51.7C599,327.5,625.6,357,622.6,392.5L622.6,392.5z"/>
					<path class="st2" d="M595,382.6c4.4,22.2-8.6,45.1-4.1,67.2c55.7,4.3,48-30.4,46.2-41.1c-7.7-46.5-42.2-86.1-49.5-77.8
						C586.2,348.6,590.6,364.9,595,382.6z"/>
					<path class="st2" d="M850.1,214.3C842,113.2,778.5,26.7,654.7,43.6c73.3,41.4,96.2,138,37.4,235.5c-4.6,7.5-4.6,17,0,24.5
						c28.4,46.4,52.1,95.7,45.8,159.7c-11.8,65.3-20.7,80.8-68.7,151.3c27.5-34.3,95.9-121.4,96.9-144.8c0.9-18.6,1.3-41.7,0.6-62.6
						l-6.8-49.6c4,9.5,6.1,28.4,6.8,49.6l0,0C838.3,370.9,854,261.9,850.1,214.3z"/>
					<path class="st3" d="M766.7,407.3c-0.7-21.3-2.8-40.2-6.8-49.6L766.7,407.3z"/>
					<path class="st4" d="M766.7,407.3c71.6-36.3,87.3-145.5,83.5-192.9c-8.9-110.5-83.8-203.1-230.7-163.5
						c-205.6,55.4-144.9,281.7-144.9,281.7s34.9,161.8,44.5,192.3c6.4,20.5,42.5,93.4,64.8,99.6c22.2,6.2,75.6-1.8,85.4-9.7
						c9.7-8,95.1-107.1,96.9-144.8c1.8-37.7,1.8-93.7-6.2-112.3"/>
					<path class="st7" d="M568.1,353.6c0,0,2.4,34.9-41.7,50.5"/>
					<path class="st7" d="M611.9,354.5c0,0,17.4,39.4,58.1,36.2"/>
				</g>
				<g id="Øyne">
					<g id="Venstre_øye">
						<path class="st8" d="M555.1,323.5c-1.5-2.5-3.1-4.7-4.9-6.9c-18.3-11.2-42.2-5.6-53.5,12.7c-11.2,18.3-5.6,42.2,12.7,53.5
							c10.8,6.6,24.1,7.7,35.6,2.7C557.7,366.9,563.3,343.9,555.1,323.5z"/>
						<path class="st9" d="M533,387.9c25.4-3.5,35.6-22.3,35.6-38.3c0-14-11.1-34.1-30.6-37.8C561.6,331,564.4,370.9,533,387.9z"/>
						<g id="Venstre_øye_stroke">
							<ellipse class="st10" cx="529.9" cy="349.7" rx="38.9" ry="38.9"/>
							<circle class="st11" cx="510.7" cy="365" r="3.8"/>
						</g>
					</g>
					<g id="Høyre_øye">
						<g id="Høyre_øye_fill">
							<g id="Layer_17">
								<path class="st8" d="M676.3,307.8c-7.4-8.7-18.2-13.7-29.5-13.7c-21.9,0-39.7,18.3-39.7,41.1c0,5.5,1,10.9,3.1,16
									c5.9,15.1,20.4,25,36.6,25.1c6.2,0,12.3-1.5,17.7-4.3C675.1,352.8,682.5,329.1,676.3,307.8z"/>
								<path class="st9" d="M686,335.2c0-10.5-1.3-25.3-25.3-38.7c21.7,31.6,11.4,59.2-4,78.7C678.5,365.6,686,351.3,686,335.2z"/>
							</g>
						</g>
						<g id="Høyre_øye_stroke">
							<path class="st12" d="M686.5,335.3c0,22.7-17.7,41.1-39.7,41.1c-16.1-0.1-30.6-10-36.6-25.1c-2.1-5-3.1-10.5-3.1-16
								c0-22.7,17.7-41.1,39.7-41.1S686.5,312.6,686.5,335.3z"/>
							<circle class="st11" cx="657.5" cy="318.6" r="3.8"/>
						</g>
					</g>
				</g>
				<g id="Øyenbryn">
					<path class="st2" d="M669.6,271.2c-11.8-5.6-26.3-5.8-37.7-5.2c-7.1,0.3-20.2-0.7-19.8,11.1v0.9l0.1,2.5
						c0.1,3.7,3.2,6.6,6.9,6.5c0.1,0,0.3,0,0.4,0c10.3-0.9,30.3-2.5,47-2.4C668.1,280.1,669.8,275.6,669.6,271.2z"/>
					<path class="st13" d="M669.6,271.2c0.1,4.4-1.5,8.9-3.1,13.4c6.5,0,13,0.4,19.4,1.3C682.2,279.5,676.4,274.3,669.6,271.2z"/>
					<path class="st2" d="M547.8,275.5c-5.6-0.4-11.2-0.7-16.8-0.7c-17.6-0.3-32.8,0.1-44.3,20.1c14.2-2.5,41.7-1,58.8,0.4
						c1.8-0.9,3.5-1.8,5.2-2.8C554.8,287.3,552.3,280.5,547.8,275.5z"/>
					<path class="st13" d="M547.8,275.5c4.4,5,6.9,11.8,2.8,17c-1.6,1-3.4,1.9-5.2,2.8c1.9,0.1,3.5,0.3,5.2,0.4
						c5,0.4,9.5-3.2,9.9-8.3c0-0.1,0-0.3,0-0.6V286C560.8,279,555.4,276.4,547.8,275.5z"/>
				</g>
				<g id="Nese">
					<g id="Nese_fill">
						<path class="st14" d="M587.9,331.8c0,0,0,27.9-10.2,47.3s-23,33.5-14.3,55c5.2,12.9,26.1,16.2,36.6,11.7
							c8.6-3.7,23-10.9,21.6-30.6c0,0-0.7-30.4-9.2-46.8C607.1,358.1,587.9,331.8,587.9,331.8z"/>
					</g>
					<g id="Nese_Stroke">
						<path class="st15" d="M587.2,333c0,0,0.7,26.7-9.5,46.1s-23,33.5-14.3,55c5.2,12.9,26.1,16.2,36.6,11.7
							c8.6-3.7,19.1-11.2,19.1-30.6"/>
						<path class="st15" d="M590,335.9c0,0-2.1,23.8-12.3,43.1c-10.2,19.4-23,33.5-14.3,55c5.2,12.9,26.1,16.2,36.6,11.7
							c8.6-3.7,19.1-11.2,19.1-30.6c0,0,2.1-14.5-7.5-42C606.8,359.4,599.5,346.8,590,335.9z"/>
					</g>
				</g>
				<g id="Munn">
					<path class="st16" d="M730,478.9c5.9-19.9,9.6-42.1,1-51.7c-3.8-4.4-10.2-6.2-19.9-4.1c-50.4,10.8-41.5,12.4-104.3,27.6
						c-43.9,10.6-70,8.1-81.7,5.8c-3.2-0.7-6.5,1.5-7.2,4.7c-0.1,0.6-0.1,1.3-0.1,1.9c0.1,1.3,0.3,2.7,0.6,4.1
						c5.2,30.7,28.1,88.3,38,101.6c5,7.2,10.6,13.9,16.8,20.2c1.9,1.8,3.8,3.5,5.9,5.2c0.7-16.7,6.1-32.9,15.4-47
						C622.9,503.6,677.3,463.7,730,478.9z"/>
					<path class="st17" d="M621.9,505.1c-18.9,11.5-67.7,80.1-42.7,89.4c11.7,9.3,25.3,12.9,47.7,10.9c42-3.8,81.8-80.2,88-89.2
						c0.9-1.3,1.6-2.8,2.4-4.1c5-10.6,9.3-21.7,12.7-33.1C677.3,463.7,642.7,492.3,621.9,505.1z"/>
					<path class="st18" d="M711.1,423.1c-50.4,10.8-41.5,12.4-104.3,27.6c-43.9,10.6-70,8.1-81.7,5.8c-3.2-0.7-6.5,1.5-7.2,4.7
						c-0.1,0.6-0.1,1.3-0.1,1.9c0.1,1.3,0.3,2.8,0.6,4.1c0.3,0.3,0.4,0.7,0.6,1c3.4,4.1,7.4,7.4,10.3,5.5c4.1-2.7,7.1-6.8,8.3-11.7
						c0,1-0.6,11.2,9,10.5c13.7-0.9,14-9.7,14-9.7s2.5,14,13.3,12.1c10.8-1.8,15.2-13,15.2-13s3,12.6,15.2,9.6
						c9.6-2.4,14.5-12,16-16.2c0.3-1,0.4-2.5,0.4-2.7c-0.1,0.6-0.3,1.2-0.6,1.8c-0.9,3.7-1.3,10.9,12.1,7.2
						c8-2.2,13.9-8.9,15.1-17.1c0,0-1,14.2,15.7,11.7c15.1-2.2,14.8-17.1,14.6-19.9c0.3,2.8,2.4,17.9,16.2,13.6
						c9.6-3.1,11.4-15.5,11.7-19.5c0,3.5,1.2,15.1,12.3,11.1c5.5-1.9,5.2-1.9,13.3-14.8C727.2,422.8,720.9,421,711.1,423.1z
						 M705.5,430.5c0-0.6,0-0.9,0-0.9S705.5,429.9,705.5,430.5L705.5,430.5z"/>
					<g id="Layer_3">
						<path class="st19" d="M689.6,514.4c-12.4,2.5-24.5,6.5-35.9,11.8c-47,21.7-79,60.6-79,60.6c-0.4,0.7-0.9,1.6-1.3,2.4
							c9.3,9.3,19.2,14.6,33.5,16.2C624.3,566.9,654.9,537.4,689.6,514.4z"/>
						<path class="st20" d="M714.2,512c-8.3,0-16.5,0.9-24.7,2.5c-34.7,23-65.3,52.6-82.7,91c6.6,0.6,13.4,0.6,20.1,0
							c42-3.8,82-80.2,88-89.2c0.9-1.3,1.6-2.8,2.4-4.1C716.3,512,715.3,512,714.2,512z"/>
					</g>
					<path class="st21" d="M717.2,512c-0.7,1.5-1.5,2.8-2.4,4.1c-6.2,9-46.1,85.4-88,89.2c-26.1,2.4-40.3-3.1-53.6-16.1
						c-6.1-6.4-11.7-13.1-16.8-20.2c-9.9-13.4-32.8-70.9-38-101.6c-0.3-1.5-0.4-2.8-0.6-4.1c-0.4-3.4,1.9-6.4,5.3-6.8
						c0.6-0.1,1.3,0,1.9,0.1c11.8,2.5,38,4.9,81.7-5.8c62.8-15.2,53.9-16.8,104.3-27.6c9.7-2.1,16.1-0.3,19.9,4.1
						C745.4,443.6,725.3,495.7,717.2,512z"/>
				</g>
				<g id="Øre_2">
					<path id="Ørering_under" class="st22" d="M829,357.3c1.8,2.2,2.7,5,2.5,7.8c0.3,6.8-5,12.6-11.8,12.7
						c-6.8,0.1-12.6-5-12.7-11.8c0-0.3,0-0.6,0-0.9c0-6.9,5.5-13.3,12.3-13.3"/>
					<path class="st2" d="M898.7,99c-25.4,62.9-120.5,145.2-141.1,153.8c-20.5,8.6-26.7,26.7-29.7,43s6.1,30.9,6.1,30.9l47.9,19.9
						c3.2,15.1,29.4,24.8,46.5,8c1.6-1.6,3.2-3.5,4.4-5.5c-1.9-2.4-3-5.8-5.9-6.6c3,0,5.9,0.3,8.7,1c9.2-21.9,3.8-57,4.9-73.7
						c0.7-13.4,13.9-50.1,31.2-97.2c-1.9-2.2-4-4.3-6.4-5.9c2.7-3.2,6.2-3.7,9.9-3.5c0.6-1.8,1.3-3.5,1.9-5.3
						c-1.8-0.9-3.8-1.3-5.9-1.5c2.5-1.3,5.2-2.5,7.8-3.2C885.4,135.8,891.9,117.9,898.7,99z"/>
					<path class="st23" d="M879.2,151.4c6.2-17,12.3-34.1,18.9-52.4c-25.4,62.9-120.4,145.2-141.1,153.8
						c-20.5,8.4-26.6,26.6-29.7,43c-3.1,16.4,6.1,30.9,6.1,30.9"/>
					<path class="st23" d="M875.4,160.9c0.3-0.9,0.1-0.6,0.4-1.5"/>
					<path class="st23" d="M836.3,341.7c9-21.9,3-55.5,4-72.1c0.7-13.4,13.7-48.9,30.9-95.6"/>
					<path class="st23" d="M781.4,346.4c3.2,15.1,29.4,24.8,46.5,8c1.3-1,2.4-2.4,3.4-3.7"/>
					<g id="Layer_11">
						<path class="st24" d="M761.5,310.1c-1.9-15.4,2.4-30.9,12.1-43c24.2-30.6,41.2-20.5,56.9-44.8c-23,43.9-29.7,78.1-28.5,96.2
							c0,0-1.8,16-28.7,8.6C763.4,324.4,761.5,310.1,761.5,310.1z"/>
					</g>
					<g id="Layer_10">
						<path class="st25" d="M768.7,315.5c0,0,1.9-45.2,23.6-50.8"/>
					</g>
					<g id="Layer_9">
						<path class="st25" d="M775.8,282.3c0,0,10.5,7.8,4.7,36.3"/>
					</g>
					<path id="Ørering_over" class="st22" d="M819.3,377.7c-6.8,0-12.4-5.8-12.3-12.6l0,0c0-6.9,5.5-13.3,12.3-13.3"/>
				</g>
			</g>
		</g>
	</g>
</g>
</svg>
