<svg xmlns="http://www.w3.org/2000/svg" xmlns:xlink="http://www.w3.org/1999/xlink" viewBox="0 0 1728 1296"><defs><style>.cls-1{filter:url(#luminosity-noclip);}.cls-2{stroke:#000;filter:url(#luminosity-noclip-2);}.cls-17,.cls-18,.cls-2,.cls-20,.cls-26,.cls-27,.cls-28{stroke-miterlimit:10;}.cls-18,.cls-2,.cls-20,.cls-21,.cls-23,.cls-29{stroke-width:22.05px;}.cls-3{fill:#001372;}.cls-4{fill:#87d3ff;}.cls-5{fill:#0077e3;opacity:0.26;}.cls-6{fill:#005eb3;}.cls-16,.cls-17,.cls-6{opacity:0.44;}.cls-7{fill:#009cf5;}.cls-8{fill:#00cf0b;}.cls-9{fill:#fff;}.cls-10{mask:url(#mask);}.cls-11{fill:#005687;opacity:0.29;}.cls-12,.cls-13{fill:#e30050;}.cls-12{opacity:0.64;}.cls-14{fill:#fbbe00;}.cls-15{fill:#f2f2f2;}.cls-16,.cls-17,.cls-18{fill:#806e6f;}.cls-17,.cls-18,.cls-26,.cls-27,.cls-28{stroke:#806e6e;}.cls-17{stroke-width:27.23px;}.cls-19{mask:url(#mask-2);}.cls-20{fill:#5c4f50;stroke:#5c4f50;opacity:0.46;}.cls-21,.cls-29,.cls-30,.cls-31,.cls-32,.cls-33{fill:none;}.cls-21,.cls-31,.cls-33{stroke:#948888;}.cls-21,.cls-22,.cls-23,.cls-24,.cls-25,.cls-29,.cls-30,.cls-31,.cls-32,.cls-33{stroke-linecap:round;stroke-linejoin:round;}.cls-22,.cls-23,.cls-24,.cls-25{fill:#6e5e5e;}.cls-22,.cls-23,.cls-24,.cls-25,.cls-29{stroke:#6e5e5e;}.cls-22,.cls-32,.cls-33{stroke-width:11.12px;}.cls-24{stroke-width:13.49px;}.cls-25{stroke-width:4.06px;}.cls-26,.cls-27,.cls-28{fill:#6b5c5c;}.cls-26{stroke-width:10.32px;}.cls-27{stroke-width:6.19px;}.cls-28{stroke-width:8.46px;}.cls-30,.cls-32{stroke:#574a4a;}.cls-30,.cls-31{stroke-width:16.83px;}</style><filter id="luminosity-noclip" x="637.07" y="181.69" width="913.44" height="761.88" filterUnits="userSpaceOnUse" color-interpolation-filters="sRGB"><feFlood flood-color="#fff" result="bg"/><feBlend in="SourceGraphic" in2="bg"/></filter><mask id="mask" x="637.07" y="181.69" width="913.44" height="761.88" maskUnits="userSpaceOnUse"><path class="cls-1" d="M1550.51,562.62a361.77,361.77,0,0,1-5.86,65c-15.3,84-59.76,158.67-123.2,214.24A404.76,404.76,0,0,1,1319.62,907c-2.52,1.16-5.08,2.26-7.65,3.35a426.64,426.64,0,0,1-319,4.42A407.55,407.55,0,0,1,889.1,855.53a392.41,392.41,0,0,1-58.25-56.36,375.85,375.85,0,0,1-52.12-80.86,365.09,365.09,0,0,1-17.54-44.06q-5.27-16.26-9-33.13a362,362,0,0,1-8.59-78.5c0-4.33.08-8.63.21-12.91a361.88,361.88,0,0,1,12.76-83.22,370.7,370.7,0,0,1,67-131.54,397,397,0,0,1,107.53-94.13c62.45-37.45,136.5-59.13,216-59.13a425.83,425.83,0,0,1,106.65,13.47,411.27,411.27,0,0,1,129,58.27,398.46,398.46,0,0,1,39.18,30.38,385.17,385.17,0,0,1,71,82.63,365.08,365.08,0,0,1,43.76,97.05c1,3.45,1.92,6.91,2.81,10.4q1.83,7.19,3.36,14.48c1.56,7.54,2.91,15.19,4,22.9A359.86,359.86,0,0,1,1550.51,562.62Z"/></mask><filter id="luminosity-noclip-2" x="73.61" y="53.15" width="353.97" height="302.65" filterUnits="userSpaceOnUse" color-interpolation-filters="sRGB"><feFlood flood-color="#fff" result="bg"/><feBlend in="SourceGraphic" in2="bg"/></filter><mask id="mask-2" x="73.61" y="53.15" width="353.97" height="302.65" maskUnits="userSpaceOnUse"><circle class="cls-2" cx="278.8" cy="201.94" r="137.76"/></mask></defs><g id="Layer_2" data-name="Layer 2"><rect class="cls-3" width="1728" height="1296"/></g><g id="Layer_1" data-name="Layer 1"><g id="Layer_5" data-name="Layer 5"><circle class="cls-4" cx="829.26" cy="200.71" r="8.97"/><circle class="cls-4" cx="651.68" cy="370.26" r="5.42"/><circle class="cls-4" cx="1242.29" cy="362.67" r="11.12"/><circle class="cls-4" cx="720.59" cy="251.25" r="7.22"/><circle class="cls-4" cx="1059.95" cy="815.12" r="8.24"/><circle class="cls-4" cx="635.13" cy="647.29" r="7.36"/><circle class="cls-4" cx="150.74" cy="514.2" r="8.97"/><circle class="cls-4" cx="563.77" cy="676.17" r="11.12"/><circle class="cls-4" cx="42.07" cy="564.75" r="7.22"/><circle class="cls-4" cx="381.43" cy="1128.61" r="8.24"/><circle class="cls-4" cx="1370.91" cy="478.33" r="8.97"/><circle class="cls-4" cx="1193.34" cy="647.88" r="5.42"/><circle class="cls-4" cx="1262.24" cy="528.87" r="7.22"/><circle class="cls-4" cx="1601.6" cy="1092.74" r="8.24"/><circle class="cls-4" cx="1176.79" cy="924.91" r="7.36"/><circle class="cls-4" cx="1168.38" cy="81.95" r="5.42"/><circle class="cls-4" cx="1576.64" cy="526.81" r="8.24"/><circle class="cls-4" cx="1151.83" cy="358.98" r="7.36"/><circle class="cls-4" cx="797.4" cy="552.79" r="8.97"/><circle class="cls-4" cx="619.83" cy="722.34" r="5.42"/><circle class="cls-4" cx="1210.43" cy="714.75" r="11.12"/><circle class="cls-4" cx="688.73" cy="603.33" r="7.22"/><circle class="cls-4" cx="1028.09" cy="1167.2" r="8.24"/><circle class="cls-4" cx="603.28" cy="999.37" r="7.36"/><circle class="cls-4" cx="138" cy="56.36" r="8.97"/><circle class="cls-4" cx="551.02" cy="218.32" r="11.12"/><circle class="cls-4" cx="29.33" cy="106.9" r="7.22"/><circle class="cls-4" cx="368.68" cy="670.76" r="8.24"/></g><path class="cls-5" d="M1415.33,664.81c0,205.9-122.89,383.12-299.36,462.24A504,504,0,0,1,909,1171.15c-228,0-420.85-150.72-484.26-358a506.93,506.93,0,0,1-22.08-148.38c0-179.93,93.85-337.94,235.3-427.71a503.72,503.72,0,0,1,271-78.6c245.85,0,450.77,175.23,496.7,407.63A508.27,508.27,0,0,1,1415.33,664.81Z"/><path class="cls-6" d="M1236.38,664.82c0,133.13-79.46,247.71-193.56,298.86A325.78,325.78,0,0,1,909,992.2c-147.43,0-272.1-97.46-313.1-231.45a327.8,327.8,0,0,1-14.28-95.93c0-116.34,60.68-218.5,152.14-276.54A325.65,325.65,0,0,1,909,337.46c159,0,291.45,113.29,321.15,263.55A328.76,328.76,0,0,1,1236.38,664.82Z"/><path class="cls-5" d="M1324.27,664.82c0,168.87-100.79,314.21-245.52,379.1A413.35,413.35,0,0,1,909,1080.09c-187,0-345.16-123.62-397.16-293.59a415.71,415.71,0,0,1-18.11-121.68c0-147.57,77-277.17,193-350.79A413.1,413.1,0,0,1,909,249.57c201.64,0,369.71,143.71,407.38,334.31A417.29,417.29,0,0,1,1324.27,664.82Z"/><path class="cls-7" d="M1181,664.83a274.25,274.25,0,0,1-3.94,46.42,272.5,272.5,0,0,1-151.68,199.46q-2.56,1.23-5.16,2.38A272.15,272.15,0,0,1,648.93,744.52c-2.37-7.74-4.4-15.64-6.07-23.65a273,273,0,0,1-5.79-56q0-4.64.14-9.22a272,272,0,0,1,504.94-130.83,268.46,268.46,0,0,1,29.5,69.28c.68,2.46,1.3,4.93,1.89,7.43q1.24,5.13,2.27,10.33,1.57,8.08,2.7,16.35A272.08,272.08,0,0,1,1181,664.83Z"/><path class="cls-8" d="M1181,664.83a274.25,274.25,0,0,1-3.94,46.42H989.72a54.88,54.88,0,1,1,0-109.76h183.82q1.24,5.13,2.27,10.33A273.75,273.75,0,0,1,1181,664.83Z"/><rect class="cls-8" x="719.89" y="746.97" width="189.12" height="90.35" rx="45.17"/><path class="cls-8" d="M899.11,895.09A21.16,21.16,0,0,1,878,916.25H805.19a271,271,0,0,1-70-42.32H878a21.15,21.15,0,0,1,21.16,21.16Z"/><path class="cls-8" d="M1067.88,444.1h-59.65a29.77,29.77,0,0,1-29.76-29.75,29.93,29.93,0,0,1,2.44-11.85A270.13,270.13,0,0,1,1067.88,444.1Z"/><rect class="cls-8" x="852.83" y="502.3" width="125.64" height="44.97" rx="22.48"/><path class="cls-8" d="M888.17,688.62a32.25,32.25,0,0,1-32.25,32.25H642.86a273,273,0,0,1-5.79-56q0-4.64.14-9.22a32.06,32.06,0,0,0,8.6-59.41A270.82,270.82,0,0,1,691,502.3H793.91a45,45,0,1,1,0,89.92H759.66a32.08,32.08,0,0,0,0,64.15h96.26a32.23,32.23,0,0,1,32.25,32.25Z"/><rect class="cls-9" x="702.85" y="531.97" width="120.28" height="34.11" rx="17.05"/><rect class="cls-9" x="909.02" y="444.1" width="95.15" height="30.14" rx="15.07"/><rect class="cls-9" x="981.43" y="524.78" width="61.22" height="24.24" rx="12.12"/><path class="cls-9" d="M1142.15,524.78h-20.68a35.75,35.75,0,0,1-27.18-59A271.38,271.38,0,0,1,1142.15,524.78Z"/><path class="cls-9" d="M1178.51,628.17H1040.23a17.06,17.06,0,0,1,0-34.11H1075a6.12,6.12,0,0,0,0-12.24h-5.74a11.37,11.37,0,1,1,0-22.74h57.34a11.37,11.37,0,0,1,0,22.74,6.12,6.12,0,1,0,0,12.24h45c.68,2.46,1.3,4.93,1.89,7.43q1.24,5.13,2.27,10.33Q1177.38,619.91,1178.51,628.17Z"/><path class="cls-9" d="M1073.27,748.8c-.2,11.32-9.91,20.18-21.23,20.18H821.47a3.49,3.49,0,0,0-3.47,3.8,3.62,3.62,0,0,0,3.67,3.2H927.73a28.85,28.85,0,0,1,28.86,29.11c-.13,16-13.64,28.61-29.6,28.61H695.88A271.07,271.07,0,0,1,660.76,776H777.7a3.49,3.49,0,0,0,3.48-3.8,3.65,3.65,0,0,0-3.7-3.2H755.7a20.55,20.55,0,0,1-20.5-21.93c.7-10.9,10.19-19.17,21.11-19.17h131A12.68,12.68,0,0,0,900,715.2h0a12.69,12.69,0,0,0-12.68-12.69h-8.67a25.81,25.81,0,0,1-25.81-25.89c0-14.34,12.22-25.71,26.57-25.71h132.2a25.8,25.8,0,1,1,0,51.6H982.33a12.69,12.69,0,0,0-12.68,12.69h0a12.68,12.68,0,0,0,12.68,12.68h70.38A20.56,20.56,0,0,1,1073.27,748.8Z"/><path class="cls-9" d="M1094,864.2a271.9,271.9,0,0,1-68.63,46.51H989a23.26,23.26,0,1,1,0-46.51Z"/><g class="cls-10"><path class="cls-11" d="M1181,664.83a274.25,274.25,0,0,1-3.94,46.42,272.5,272.5,0,0,1-151.68,199.46q-2.56,1.23-5.16,2.38A272.15,272.15,0,0,1,648.93,744.52c-2.37-7.74-4.4-15.64-6.07-23.65a273,273,0,0,1-5.79-56q0-4.64.14-9.22a272,272,0,0,1,504.94-130.83,268.46,268.46,0,0,1,29.5,69.28c.68,2.46,1.3,4.93,1.89,7.43q1.24,5.13,2.27,10.33,1.57,8.08,2.7,16.35A272.08,272.08,0,0,1,1181,664.83Z"/></g></g><g id="Layer_3" data-name="Layer 3"><path class="cls-12" d="M1383.92,488.86l-6.84,9.21c-25.64,34.76-17.5,84.26,18.16,110.57a82.12,82.12,0,0,0,18,10.09c32.92,13.3,71.44,3.79,93-25.42L1728,294.46V25.15Z"/><path class="cls-13" d="M1387.33,498.35,1728,39.28V280.37L1500.26,587.26A71.84,71.84,0,1,1,1384.62,502Z"/><path class="cls-14" d="M1618.78,278.62,1728,130.5v53.74l-36.15,49a8.35,8.35,0,1,0,13.44,9.91L1728,212.39v53.73L1591.53,451.2l-13.39-9.87-6.2-4.58L1554.84,460,1529.17,441l17.11-23.2-13.41-9.89-43.43,58.9-25.67-18.93L1507.2,389l-6.17-4.55-13.39-9.87L1638.3,170.27A15.95,15.95,0,1,1,1664,189.2l-58.63,79.51a8.35,8.35,0,1,0,13.44,9.91Z"/><path class="cls-14" d="M1403.85,597a64.53,64.53,0,0,0,90.25-13.64l97.43-132.12-103.89-76.61-97.43,132.12A64.53,64.53,0,0,0,1403.85,597Z"/><path class="cls-15" d="M1413.55,583.81c21.29,15.7,53.46,8.22,71.85-16.72l84.68-114.83L1676.47,308a9.62,9.62,0,0,0-2-13.47h0a9.63,9.63,0,0,0-13.47,2l-93.71,127.08a9.23,9.23,0,0,1-12.9,1.95h0a9.22,9.22,0,0,1-1.95-12.91L1587,365.78a9.9,9.9,0,0,0-2.09-13.85h0A9.9,9.9,0,0,0,1571,354l-63.29,85.83a9.45,9.45,0,0,1-13.22,2h0a9.45,9.45,0,0,1-2-13.22l92.23-125.07a9.68,9.68,0,0,0-2-13.53h0a9.67,9.67,0,0,0-13.53,2L1493,395.4l-84.67,114.83C1389.9,535.16,1392.26,568.11,1413.55,583.81Z"/><path class="cls-12" d="M1234.17,0l-60.4,81.4-4.37,5.88-78,105.08-56.81,76.55-21,28.35c-25.64,34.77-75.33,41.63-111,15.33a80.86,80.86,0,0,1-33-61.16h0A76.63,76.63,0,0,1,884.42,202l32.25-43.46L1034.33,0Z"/><path class="cls-13" d="M1223.71,0l-57,76.8L1163,81.86l-79.71,107.42-57.16,77-18.49,24.91A71.84,71.84,0,1,1,892,206l35-47.13L1044.81,0Z"/><polygon class="cls-14" points="1213.28 0 1098.88 155.15 1085.48 145.28 1079.29 140.71 1062.18 163.91 1036.51 144.98 1053.62 121.78 1040.22 111.89 999.86 166.63 996.79 170.79 988.55 164.71 988.54 164.7 971.12 151.86 1014.55 92.97 1008.37 88.42 994.98 78.54 1052.9 0 1213.28 0"/><path class="cls-14" d="M911.2,300.91a64.54,64.54,0,0,0,90.25-13.64l97.43-132.12L995,78.54,897.56,210.66A64.53,64.53,0,0,0,911.2,300.91Z"/><path class="cls-15" d="M1183.82,11.93l-98.33,133.34h0l-8.06,10.93-18.36,24.89-58,78.7L992.74,271c-18.38,24.94-50.55,32.42-71.84,16.72C909,279,903,264.79,903.25,249.62a61.84,61.84,0,0,1,12.38-35.44l39.53-53.61,45.15-61.22,8.06-10.93L1073.57,0h20.24a9.61,9.61,0,0,1-1.73,7.5L1024,99.9l-24.09,32.68a9.45,9.45,0,1,0,15.22,11.22l24.09-32.68L1078.36,58a9.91,9.91,0,0,1,16,11.76l-34.57,46.87a9.24,9.24,0,0,0,2,12.91,9.06,9.06,0,0,0,4.82,1.77,9.19,9.19,0,0,0,8.09-3.72L1168.3.49a6,6,0,0,1,.39-.49h14.74A9.65,9.65,0,0,1,1183.82,11.93Z"/><path class="cls-12" d="M1307.05,0h-33l-69.47,93.62c-21.31,28.9-14.55,70,15.1,91.91s71,16.16,92.27-12.74L1440.2,0H1307.05Z"/><path class="cls-13" d="M1307.05,0h-24.27l-71.89,96.88A59.71,59.71,0,1,0,1307,167.76L1431.5,0H1307.05Z"/><polygon class="cls-14" points="1423.18 0 1382.88 54.65 1371.76 46.45 1371.75 46.45 1366.6 42.65 1352.38 61.94 1331.04 46.2 1345.26 26.91 1334.12 18.7 1298.02 67.66 1276.68 51.92 1312.78 2.96 1308.77 0 1423.18 0"/><path class="cls-14" d="M1307.05,0h-17.19l-74.33,100.8a53.65,53.65,0,1,0,86.36,63.69l81-109.84-11.12-8.2h0l-5.15-3.8L1356,34.82l-6.62-4.88-4.11-3-11.14-8.21-.87-.64L1320.6,8.73,1312.78,3l-4-3Z"/><path class="cls-15" d="M1307.05,0,1301,8.27l-70.39,95.46c-15.29,20.72-13.33,48.11,4.37,61.16s44.44,6.83,59.73-13.89l70.39-95.46,6.7-9.09h0L1406,0h-19.91L1362.7,31.72a7.67,7.67,0,1,1-12.35-9.11L1367,0h-20.45l-13.32,18.06-20,27.16A7.86,7.86,0,0,1,1299,40.54a7.77,7.77,0,0,1,1.54-4.65l20-27.16L1327,0h-20Z"/><path class="cls-12" d="M1710.39,0,1371,457.35l-64.5,86.93L1252,617.71A84.89,84.89,0,0,1,1235,635a86.5,86.5,0,0,1-37.53,16.38h0c-2.39.44-4.81.76-7.24,1a89.78,89.78,0,0,1-9.56.39,91.81,91.81,0,0,1-80.75-51.24,89.37,89.37,0,0,1-9.1-42.41,85.72,85.72,0,0,1,16.68-47.93l12.9-17.39,33.91-45.7,53.29-71.81,54.87-73.94L1486.81,0Z"/><path class="cls-13" d="M1698.7,0,1366.52,447.64,1303,533.24l-57.66,77.7a81.27,81.27,0,0,1-11.53,12.61,80.18,80.18,0,0,1-39.81,19c-.93.16-1.88.3-2.82.42h0a81.13,81.13,0,0,1-11,.7,80,80,0,0,1-46.86-15.45l-.33-.24a80.39,80.39,0,0,1-22-104.73,82.45,82.45,0,0,1,5-7.66l10.46-14.09,34.19-46.08,53.56-72.18,17.38-23.42h0l4.85-6.53L1269.23,309,1498.54,0Z"/><path class="cls-14" d="M1459.68,214.9a9.34,9.34,0,0,0,15,11.09l83.09-112.7a17.84,17.84,0,0,1,28.72,21.18L1362.17,438.73l-14.73,20-15-11-6.93-5.11-19.14,26-28.72-21.18,19.14-26-15-11.05L1259,441.25l-25.78,35L1204.51,455l32.82-44.5,15.77-21.39-6.91-5.09-15-11.05,2.45-3.32,12.78-17.33,28-38,125.32-170a17.84,17.84,0,0,1,28.72,21.18l-65.6,89a9.34,9.34,0,0,0,15,11.09L1573.8,0H1606a17.8,17.8,0,0,1-1.57,18.61Z"/><path class="cls-14" d="M1137.47,621.79a72.21,72.21,0,0,0,101-15.26l109-147.82L1231.21,373l-109,147.82A72.2,72.2,0,0,0,1137.47,621.79Z"/><path class="cls-15" d="M1148.32,607.07c23.83,17.57,59.81,9.2,80.39-18.7l94.73-128.47,119-161.43a10.76,10.76,0,0,0-2.28-15.07h0a10.76,10.76,0,0,0-15.07,2.28L1320.28,427.84a10.32,10.32,0,0,1-14.44,2.18h0a10.33,10.33,0,0,1-2.18-14.44l38.67-52.44a11.08,11.08,0,0,0-2.34-15.49h0a11.09,11.09,0,0,0-15.5,2.34l-70.8,96a10.58,10.58,0,0,1-14.79,2.23h0a10.57,10.57,0,0,1-2.24-14.79l103.18-139.93a10.83,10.83,0,0,0-2.28-15.14h0a10.83,10.83,0,0,0-15.14,2.29l-85.25,115.61-94.74,128.47C1121.86,552.65,1124.5,589.51,1148.32,607.07Z"/></g><g id="Layer_4" data-name="Layer 4"><path class="cls-16" d="M406.9,414.7C292.2,516.59,116.62,506.22,14.72,391.53q-7.8-8.77-14.72-18v-333A278.55,278.55,0,0,1,37.18,0H407.66a278.61,278.61,0,0,1,22.41,22.52C532,137.22,521.59,312.8,406.9,414.7Z"/><circle class="cls-17" cx="222.4" cy="207.02" r="170.17"/><circle class="cls-18" cx="222.4" cy="207.02" r="137.76"/><circle class="cls-18" cx="222.4" cy="207.02" r="137.76"/><g class="cls-19"><circle class="cls-20" cx="222.4" cy="207.02" r="137.76"/></g><path class="cls-21" d="M345.27,144.71A137.91,137.91,0,0,1,337.36,283"/><circle class="cls-22" cx="262.58" cy="271.67" r="13.11"/><circle class="cls-23" cx="214.95" cy="161.46" r="22.81"/><circle class="cls-24" cx="301.02" cy="186.56" r="13.96"/><circle class="cls-25" cx="201.35" cy="239.77" r="4.2"/><circle class="cls-26" cx="166.29" cy="126.57" r="19.45"/><circle class="cls-27" cx="140.22" cy="206.35" r="11.67"/><path class="cls-28" d="M217.87,327.43a16,16,0,1,1,1.33-22.52,16,16,0,0,1-1.33,22.52"/><circle class="cls-29" cx="214.95" cy="161.46" r="22.81"/><path class="cls-30" d="M194.5,176.41a22.81,22.81,0,0,1,1.9-32.21"/><path class="cls-31" d="M237.12,148.61a22.82,22.82,0,0,1-5.05,31.87"/><path class="cls-32" d="M258.72,259.14"/><path class="cls-32" d="M253.89,281.49a14.53,14.53,0,0,1-1.11-1.11,13.11,13.11,0,0,1,1.09-18.51,12.46,12.46,0,0,1,1.07-.85"/><path class="cls-33" d="M271.26,261.86a11.63,11.63,0,0,1,1.11,1.11,13.1,13.1,0,0,1-1.09,18.5,12,12,0,0,1-1.06.85"/></g></svg>