<svg id="Layer_1" data-name="Layer 1" xmlns="http://www.w3.org/2000/svg" viewBox="0 0 338.31 364.54"><defs><style>.cls-1{fill:#00d7f2;}.cls-2{fill:#00c8e9;}.cls-3{fill:#fefaf7;}.cls-4{fill:#31c102;}.cls-5{fill:#32a000;}.cls-6{fill:#2fa000;}.cls-7{fill:#3ace00;}.cls-8{fill:#f6ffff;}.cls-9{fill:#390101;}.cls-10{fill:#ff9ba7;}.cls-11{fill:#fdfcff;}.cls-12{fill:#310000;}.cls-13{fill:#32d002;}.cls-14{fill:#32c200;}.cls-15{fill:#320002;}</style></defs><path class="cls-1" d="M467,531.28s2.47,6.14.63,8.86-10.49,9.25-10.49,9.25-8.1,4-9.2,7.16-4,6.3-2.91,11.92,2.76,5.34.79,11.45,1.82,9.54,1.82,9.54l.9,1.63-1.67,22.23,1,2.23,2.58,5.3s.78,1.76,0,5.42,12.68,11,12.68,11l23.79-2,21.19-3.85,4.51-8.68-1.09-25.69.15-22.24-7.26-21.45-16.08-18.52-9.48-5.51Z" transform="translate(-439.11 -347.42)"/><path class="cls-2" d="M477.66,534a10.26,10.26,0,0,1,4.91.45c2.06.91,3.31,2.33,3.47,3.63a63.28,63.28,0,0,0,.94,7.26c.51,1.81,0,4.37,3.24,5.88s8.28,3.94,9.2,5.21,1.95,7.08,1.91,7.42-25.41.52-27.63,1.11-8.1,1-11.3,3.84,5,4.26,5,4.26l16.63-.73,17.59-.92s5.33-.27,6.85,1.93,3.12,3.7.53,4.43-36.61,2.86-38.74,3.16-6.2.12-7.76,2.23,5,3.78,7.35,3.91S486,585.8,486,585.8s14.1-.75,15.87-.45,4.7.14,5.5,1.71.75,3.31-.42,3.88-3.71,2-5.65,2.1-27.45-.52-28.69-.51-7.57-.59-9.24,3.1-.58,7.5,4.45,7.3S486,601.79,486,601.79s15.16-.86,17.2-.59,5.64.06,7.18,2.55-2.87,4.74-2.87,4.74l-28.13.79s-5.17.12-7.11,1.72-3.1,3.62-1.65,4.31,3.08,2.91,8.79,2.91,22.61-.64,22.61-.64,6.44.07,8.69,2.9-2.62,6.22-2.62,6.22-3,5-8.78,1.9-8-3.25-11-.45-7.22,5.61-11.64,1.93-9.76-.35-11.07.48-7.25,3.15-10.54-.54-4.66-3.75-4.66-3.75.16,11.16,3,13.49,8.78,8.07,14.05,4.73,8.73-5.13,13.46-1.65,10.47.94,12.31-1,3.94-3.74,7.48-.58,9.65,1.68,9.65,1.68l8.55-2.88,5.21-23.28.49-27.07-4.06-24.91-11.79-21-11.55-11.43-4.63-2.56-9.23-1.26-11.21,2.15-1.74.24Z" transform="translate(-439.11 -347.42)"/><path class="cls-3" d="M449.79,566.35a7.4,7.4,0,0,1,1.28-6.48c2.4-3.52,10.15-8.86,10.15-8.86s3.52-3.13,4.75-.57-1.77,5.95-1.77,5.95-6.28,5.15-7.61,7.51c-1.1,1.94-2.74,3.66-4.67,3.61S449.79,566.35,449.79,566.35Z" transform="translate(-439.11 -347.42)"/><path class="cls-4" d="M476.67,438.17l4.42,37.61,4.8,44.31h4s2.13.61,2.54,3.7a16,16,0,0,1-.6,6.22s-1.17,4.86,1.35,8,16.36,11.78,16.36,11.78,5.1,1.92,6,13.18S519,578.49,519,578.49s1.11,3.76,0,6-2.64,4.44-.68,5.92,1.17,9.89,1.17,9.89l-1,2.81a12.26,12.26,0,0,1,2.15,8.21c-.35,5.14-2.29,7.23-2.29,7.23s1.92,3.54,1.56,4.76,0,6.93,0,6.93-.58,6.35-4.49,9.36-5.17,3.31-5.17,3.31l18.8,22.16s8.69,12,31.53,13.79,62.88,3,62.88,3l48.61-3s29.51-3.07,39.69-11S730.07,653,733.51,645.6s11.83-27.6,12.62-30.45,4.68-27.3,4.68-27.3L753.29,560l1.77-39.4,1.87-55.58,1.21-37.3Z" transform="translate(-439.11 -347.42)"/><path class="cls-5" d="M504.6,376.27l5.28-11.64a15.57,15.57,0,0,1,9.71-5.37c6.28-.83,195-7.25,195-7.25s7.84-.48,12.08,5.41a35.07,35.07,0,0,1,5.47,10.83Z" transform="translate(-439.11 -347.42)"/><path class="cls-6" d="M465,438.17s-7.06-2-7.25-6.68-.76-18.61-.76-18.61a9,9,0,0,1,6.66-5.44c5.06-.91,16.52-.95,16.52-.95l288.92-10.27s6.42,2.38,7.5,7.15.79,16.66.79,16.66a8.84,8.84,0,0,1-8.33,7.25c-3.45.32-143,5.25-231.82,8.36l-3.37.12Z" transform="translate(-439.11 -347.42)"/><path class="cls-4" d="M524.77,363l28.8-1.52s3.8-.38,4,3.22-4.82,5.84-6.28,6.07-25.52.92-25.52.92-4.39-.93-4.83-4S524.77,363,524.77,363Z" transform="translate(-439.11 -347.42)"/><path class="cls-4" d="M513.58,417.66l44-3.24s6.74-.66,7,3.24-4,6.14-7,6.89-43.11,3-43.11,3-4.2-1.1-4.58-4.89S513.58,417.66,513.58,417.66Z" transform="translate(-439.11 -347.42)"/><path class="cls-4" d="M475.65,419.08,493,417.59s4.4-.38,4.75,3.35-1.08,5.51-4.76,6.65-17.33,1.68-17.33,1.68-4,0-4.06-4.83S475.65,419.08,475.65,419.08Z" transform="translate(-439.11 -347.42)"/><path class="cls-7" d="M540.61,352.37l13.23-.42s2.34.44,2.95,1.34a10.58,10.58,0,0,1,.8,3.52l-20.76.89a8.11,8.11,0,0,1,.59-2.87C537.94,353.89,539.22,352.41,540.61,352.37Z" transform="translate(-439.11 -347.42)"/><path class="cls-7" d="M672,352.89s-.1-2.72,1.59-3.86a12.69,12.69,0,0,1,3.73-1.61h11.26s2.27.1,3.09,1.41a21.11,21.11,0,0,1,1.57,3.5Z" transform="translate(-439.11 -347.42)"/><path class="cls-7" d="M732.15,368.25,735,383s1.14,6.38-8.2,6.68-30.49,1.05-30.49,1.05l-3-12.64s-2.23-7-12.17-6.4-52.06,2.2-52.06,2.2L595.28,375l-43.81.91s-8.81,1.1-11.33,5.31-3.68,15.36-3.68,15.36l-61.3,1.88s2.48-10.22,4.09-12.54,7.44-7.87,14.16-8.58,11.19-1.05,11.19-1.05Z" transform="translate(-439.11 -347.42)"/><path class="cls-7" d="M494.15,479.6s3.87-24.87,23.37-26.27,58-1.39,58-1.39l62.93-2.06,51.64-2.09s27.95,4.35,35.73,12.95,12.39,13.91,11.27,47.3-2.42,66.82-2.42,66.82l-1.53,12.58s-.4,28.09-20.78,48.78-58.64,31.68-58.64,31.68l-70,1.93s-40.92-8.42-46.49-27.87S530,618.18,530,618.18s1.23-10.08-.63-11.81-2.09-3-.66-5.21,1.31-9.74-.73-10.7,1.43-3.46,1.43-3.46,2.07-7-.68-10-1-11.4-1-11.4a16.75,16.75,0,0,0-7.39-15.1c-8.64-6.14-17.13-12.71-18.85-18.57s-5-20.6-5-20.6Z" transform="translate(-439.11 -347.42)"/><path class="cls-8" d="M572.64,512.34" transform="translate(-439.11 -347.42)"/><circle class="cls-9" cx="136.41" cy="162.23" r="12.58"/><circle class="cls-8" cx="134.23" cy="160.62" r="4.55"/><circle class="cls-9" cx="224.59" cy="160.62" r="12.58"/><circle class="cls-8" cx="222.32" cy="157.69" r="4.55"/><path class="cls-9" d="M609.74,514.17a3.45,3.45,0,0,1,3,2.66c.59,2.52,2.29,7.36,5.9,7.44s6.63-.56,7.93-3.15a23.56,23.56,0,0,0,1.83-5.67s1.24-2,2.56-2a2.91,2.91,0,0,1,2.75,3.2c-.09,2-3.82,12.67-12,12.62s-9.52-3.46-10.58-4.54-4-6.12-4-7.76S608,514.67,609.74,514.17Z" transform="translate(-439.11 -347.42)"/><ellipse class="cls-10" cx="224.59" cy="183.98" rx="12.58" ry="8.69"/><ellipse class="cls-10" cx="575.72" cy="532.71" rx="12.06" ry="7.64" transform="matrix(0.99, -0.12, 0.12, 0.99, -497.81, -275.96)"/><path class="cls-11" d="M663.12,599.36s6.69,20.24,6.89,21.32a23.6,23.6,0,0,1,.19,8.78c-.52,2.32-2.08,4.23-3.31,5.87a20.2,20.2,0,0,1-14.19,7.47c-5.68.46-15.83.29-15.83.29l-.14,3.52a4,4,0,0,1-1.24,2.85c-1,.91-2.68,1.44-4.93-.92-4-4.2-8.17-8.75-8.17-8.75s-4-3.13-.48-7.11,10.59-8.88,10.59-8.88,3.7-2.86,4.12.87a44.84,44.84,0,0,1,.37,5.78l17.08-.62s5.41-1,3.12-9.27S652,604.72,652,604.72s.42-6.05,4.76-7.11S663.12,599.36,663.12,599.36Z" transform="translate(-439.11 -347.42)"/><path class="cls-12" d="M741.47,565.11s-.16-2.61,1.27-2.87,2.54.28,3.27,2.87,2.35,9.09,1.31,13.79-4.13,11.1-9.77,12.72-11.33,2.93-16.07,2.27-3.5-.31-3.5-.31a6.57,6.57,0,0,1-3.78,4.54c-3.09,1.14-7.21,3.36-11.2.5s-5.12-6-4.58-8.58,2.17-6.8,5.31-7.7,8.18.81,8.18.81-.13-7.4.6-8.51,2.71-3.14,4.64-2.81,3.37.14,2.41,7.36-1.13,10.11-1.13,10.11l9.46.53s7.66-.5,10.52-3.47,5.3-6.6,4.78-12.3A38.4,38.4,0,0,0,741.47,565.11Z" transform="translate(-439.11 -347.42)"/><path class="cls-12" d="M448.28,614.18s-8.47-1.22-9-6.86a59.19,59.19,0,0,1,.35-11.87s4.56-9.41,11.28-2.49,2.12,16.9,2.12,16.9S451.53,613.57,448.28,614.18Z" transform="translate(-439.11 -347.42)"/><path class="cls-11" d="M611.9,647.08s-21.16-2.56-22.22-2.84a23.51,23.51,0,0,1-8-3.57c-1.88-1.45-2.94-3.68-3.9-5.49a20.21,20.21,0,0,1-.72-16c2-5.35,6.48-14.45,6.48-14.45l-3.13-1.63a4,4,0,0,1-2-2.34c-.39-1.31-.17-3,2.93-4.06,5.49-1.83,11.39-3.67,11.39-3.67a4.73,4.73,0,0,1,6.64,2.59c2.12,4.84,3.53,13.36,3.53,13.36s1,4.56-2.54,3.36a45.9,45.9,0,0,1-5.39-2.12l-6.71,15.71s-1.44,5.3,7.06,6.77,16.54,2,16.54,2,5.3,3,4.41,7.34S611.9,647.08,611.9,647.08Z" transform="translate(-439.11 -347.42)"/><path class="cls-11" d="M595.69,584.12s11.7-17.82,12.42-18.64a23.48,23.48,0,0,1,6.77-5.61c2.13-1,4.6-1,6.65-1.06a20.19,20.19,0,0,1,14.66,6.48c3.9,4.17,10.07,12.23,10.07,12.23l2.84-2.09a4,4,0,0,1,3-.79c1.35.23,2.8,1.2,2.34,4.43-.81,5.74-1.78,11.84-1.78,11.84a4.72,4.72,0,0,1-5.27,4.79c-5.28-.26-13.53-2.77-13.53-2.77s-4.54-1.13-1.88-3.78a45.45,45.45,0,0,1,4.29-3.88l-11.09-13s-4.11-3.65-9.21,3.31-9.18,13.9-9.18,13.9-5,3.44-8.54.69S595.69,584.12,595.69,584.12Z" transform="translate(-439.11 -347.42)"/><path class="cls-6" d="M537.23,440.25s-.11,1.78-1,2.34a7.23,7.23,0,0,1-2.32.74l0-7.57,3.37-.12Z" transform="translate(-439.11 -347.42)"/><path class="cls-6" d="M617.2,432.83V440s3.79.05,3.76-2.72,0-4.61,0-4.61Z" transform="translate(-439.11 -347.42)"/><path class="cls-6" d="M700.72,429.86v7.84s3-.29,3.46-2.9a26.6,26.6,0,0,0,.36-4.94Z" transform="translate(-439.11 -347.42)"/><path class="cls-13" d="M519.76,436.26V444s-.77,1.32,1.9,1.43,10.59,0,10.59,0a2,2,0,0,0,1.65-2.06l0-7.57" transform="translate(-439.11 -347.42)"/><path class="cls-13" d="M603.07,433.19v7.71s-.78,1.31,1.89,1.42,10.59,0,10.59,0a2,2,0,0,0,1.65-2.05l0-7.57" transform="translate(-439.11 -347.42)"/><path class="cls-13" d="M686.59,430.35v7.71s-.78,1.31,1.89,1.42,10.59,0,10.59,0a2,2,0,0,0,1.65-2.05l0-7.57" transform="translate(-439.11 -347.42)"/><path class="cls-14" d="M732.15,368.25s13.74-2.67,20.13,7.56a56,56,0,0,1,7.62,20.74L474.72,406.6l.44-8.16,61.3-1.88s2.18-12.86,3.68-15.36c1.12-1.86,4.57-4.16,10.07-5.1,5.23-.91,130.9-4.46,130.9-4.46s5.63-.25,8,1.61,3.85,3.34,4.92,7.81l2.31,9.62,33.08-1.33s6.12-.85,5.61-6.4A124.71,124.71,0,0,0,732.15,368.25Z" transform="translate(-439.11 -347.42)"/><path class="cls-12" d="M468.36,521.64a3.65,3.65,0,0,0-3.11,3.05c-.59,2.83.64,6.17,1.72,6.59a23,23,0,0,0,5.6.14c7.06-.3,18.06-1.46,18.06-1.46l1.17,0a12,12,0,0,0,.54-2,16.63,16.63,0,0,0,.06-4.2,7.37,7.37,0,0,0-.58-2.21,4,4,0,0,0-3.53-1.66Z" transform="translate(-439.11 -347.42)"/><path class="cls-15" d="M601.57,681.88s4.51,20.67,4.56,21.11-.67,1-1.89.83-3.79-1.59-7.71.65-2.56,5.48-1.75,5.91,2,1.83,4.87,1.54,8.26.44,9.42-2.48-3.77-27.13-3.77-27.13Z" transform="translate(-439.11 -347.42)"/><path class="cls-15" d="M655.18,679.94s-4.81,22-4.86,22.47.71,1,2,.88,4-1.69,8.21.7,2.74,5.83,1.88,6.29-2.17,2-5.2,1.64-8.81.46-10.05-2.65,4-28.87,4-28.87Z" transform="translate(-439.11 -347.42)"/></svg>